<?xml version="1.0" standalone="no"?>
<!DOCTYPE svg PUBLIC "-//W3C//DTD SVG 20010904//EN"
 "http://www.w3.org/TR/2001/REC-SVG-20010904/DTD/svg10.dtd">
<svg version="1.0" xmlns="http://www.w3.org/2000/svg"
 width="1280.000000pt" height="720.000000pt" viewBox="0 0 1280.000000 720.000000"
 preserveAspectRatio="xMidYMid meet">
<metadata>
Created by potrace 1.16, written by Peter Selinger 2001-2019
</metadata>
<g transform="translate(0.000000,720.000000) scale(0.100000,-0.100000)"
fill="#000000" stroke="none">
<path d="M11169 4503 c-1 -93 -1 -190 -1 -218 0 -47 0 -48 -7 -15 l-8 35 -2
-32 c-1 -28 -5 -33 -25 -33 -13 0 -26 6 -29 13 -4 10 -7 10 -18 0 -7 -7 -21
-13 -31 -13 -10 0 -19 -6 -20 -12 -1 -7 -4 12 -8 42 l-6 55 -8 -42 c-5 -24
-12 -43 -17 -43 -5 0 -10 -10 -11 -22 -1 -13 -5 67 -8 177 -4 131 -6 7 -8
-357 -1 -306 -5 -559 -9 -561 -5 -2 -148 80 -319 182 -170 102 -348 208 -395
236 -46 27 -158 93 -248 147 -90 54 -166 98 -168 98 -3 0 -24 14 -48 30 -24
17 -46 30 -49 30 -4 0 -41 22 -84 48 -42 27 -87 54 -99 60 -21 12 -21 11 -8
-15 19 -36 4 -53 -46 -53 -26 0 -41 6 -48 17 -9 17 -11 16 -35 -6 -14 -13 -31
-21 -39 -18 -8 3 -19 1 -24 -4 -6 -6 -14 -5 -22 4 -9 12 -7 16 15 21 29 8 23
19 -15 31 -20 6 -23 4 -18 -9 9 -24 -12 -19 -52 12 -20 15 -40 27 -46 28 -29
1 -56 17 -51 29 3 10 0 12 -11 8 -9 -4 -14 -2 -11 3 4 5 -7 10 -23 10 -27 2
-28 0 -12 -12 10 -7 22 -14 26 -14 5 0 29 -14 54 -32 26 -17 52 -31 60 -31 7
0 13 -4 13 -8 0 -9 71 -52 88 -52 6 0 12 -4 12 -7 0 -4 32 -26 71 -49 50 -29
75 -38 84 -31 6 5 15 7 18 3 4 -3 7 -1 7 7 0 10 3 10 15 0 11 -9 13 -16 6 -23
-7 -7 -15 -6 -25 2 -9 7 -17 8 -20 2 -4 -5 8 -17 25 -25 37 -18 51 -21 29 -5
-13 9 -13 10 0 6 8 -2 14 -9 13 -15 -2 -6 75 -57 170 -113 94 -57 415 -248
712 -426 l539 -323 93 0 93 0 0 725 c0 399 -2 725 -5 725 -3 0 -6 -75 -6 -167z"/>
<path d="M8859 4453 c-2 -127 -8 -235 -13 -240 -3 -4 -6 3 -6 14 0 18 -5 20
-50 15 -41 -4 -50 -2 -50 12 0 9 -8 16 -20 16 -18 0 -19 -3 -10 -20 6 -12 9
-38 7 -58 l-4 -37 -1 43 c-2 30 -6 42 -17 42 -17 0 -24 24 -28 105 -2 33 -4
-207 -5 -532 l-2 -593 105 0 105 0 0 630 c0 347 -2 630 -5 630 -3 0 -5 -12 -6
-27z"/>
<path d="M3832 4359 c112 -108 152 -209 152 -389 0 -134 -23 -219 -81 -307
-108 -163 -288 -227 -708 -253 -107 -7 -416 -10 -765 -8 l-585 3 -3 158 -3
157 -109 0 -110 0 0 -250 0 -250 783 0 c813 0 1011 8 1192 45 330 68 518 226
591 495 23 85 24 329 1 410 -22 80 -48 143 -64 157 -8 6 -14 14 -14 17 1 3 -1
6 -4 6 -3 0 -7 0 -10 0 -3 0 -1 -9 5 -20 6 -11 16 -18 22 -14 6 4 8 -1 3 -15
-4 -12 -2 -21 4 -21 6 0 7 -7 4 -17 -4 -11 -3 -14 5 -9 7 4 12 2 12 -4 0 -8
-16 -11 -42 -10 -82 5 -106 1 -111 -17 -4 -17 -5 -17 -6 0 0 9 -8 17 -18 17
-24 0 -86 72 -70 82 9 6 8 8 -3 8 -13 0 -13 2 0 11 13 9 13 10 -2 6 -9 -3 -19
-3 -23 1 -4 4 -10 7 -14 7 -4 0 -27 15 -51 34 -33 25 -27 17 22 -30z"/>
<path d="M4762 3558 l-2 -338 110 0 110 0 -2 328 c-2 286 -3 304 -8 147 -3
-99 -7 -173 -8 -165 -2 12 -17 14 -83 12 -51 -2 -86 1 -93 8 -7 7 -13 75 -17
178 -4 135 -6 102 -7 -170z"/>
<path d="M2046 2739 c-112 -31 -128 -201 -24 -255 61 -31 147 -13 181 39 73
112 -28 252 -157 216z m105 -68 c59 -60 23 -156 -59 -156 -57 0 -92 34 -92 89
1 89 90 128 151 67z"/>
<path d="M3347 2744 c-4 -4 -7 -67 -7 -141 l0 -133 25 0 c25 0 25 1 25 88 l1
87 82 -87 c45 -49 86 -88 90 -88 4 0 7 61 7 135 l0 135 -25 0 c-25 0 -25 -1
-25 -82 l-1 -83 -82 88 c-45 49 -86 85 -90 81z"/>
<path d="M3827 2718 c-75 -160 -107 -231 -107 -239 0 -20 41 -8 52 16 10 23
17 25 73 25 56 0 63 -2 73 -25 11 -23 52 -37 52 -17 0 11 -110 255 -120 265
-4 5 -14 -7 -23 -25z"/>
<path d="M4418 2742 c-51 -4 -104 -54 -114 -107 -12 -68 32 -145 94 -161 33
-9 109 1 127 16 14 12 14 15 0 30 -15 16 -19 16 -46 3 -43 -21 -92 -3 -114 43
-40 86 44 167 127 123 16 -8 24 -8 35 3 12 13 12 16 -1 27 -20 17 -65 27 -108
23z"/>
<path d="M4782 2742 c-43 -5 -97 -59 -106 -106 -17 -89 44 -167 132 -168 88
-1 146 61 139 150 -6 89 -68 136 -165 124z m87 -63 c69 -65 33 -164 -61 -164
-81 0 -117 97 -59 156 36 36 86 39 120 8z"/>
<path d="M5510 2740 c-84 -15 -115 -60 -111 -162 1 -15 14 -43 31 -61 73 -84
207 -54 238 52 19 61 -14 140 -66 159 -46 17 -56 19 -92 12z m83 -64 c37 -34
44 -72 22 -112 -32 -60 -99 -67 -150 -17 -35 36 -34 82 4 122 37 40 86 42 124
7z"/>
<path d="M6020 2655 c-24 -52 -46 -95 -49 -95 -4 1 -21 35 -40 78 -53 118 -64
127 -75 60 -3 -24 -13 -79 -21 -123 -19 -103 -19 -105 4 -105 15 0 22 11 30
50 6 28 11 62 11 75 0 38 16 30 35 -17 29 -74 47 -108 56 -108 6 0 19 21 30
48 40 93 44 102 51 102 5 0 8 -11 8 -25 0 -13 5 -47 11 -75 8 -39 15 -50 30
-50 11 0 19 7 19 17 0 29 -42 248 -50 256 -4 4 -26 -35 -50 -88z"/>
<path d="M7952 2709 c-11 -24 -39 -84 -61 -132 -23 -49 -41 -92 -41 -98 0 -21
41 -8 50 16 9 23 14 25 73 25 58 0 65 -2 75 -25 11 -23 52 -37 52 -17 0 8 -98
223 -117 256 -10 18 -13 16 -31 -25z"/>
<path d="M8280 2740 c-45 -11 -61 -78 -28 -118 6 -7 27 -20 47 -29 52 -25 67
-42 54 -62 -13 -21 -50 -26 -80 -10 -20 11 -26 11 -33 -1 -22 -36 61 -68 116
-45 40 16 57 47 49 86 -5 22 -20 37 -63 62 -31 18 -58 41 -60 49 -5 26 30 40
68 27 23 -9 34 -9 43 0 26 26 -54 56 -113 41z"/>
<path d="M9285 2742 c-48 -7 -62 -12 -82 -29 -32 -28 -43 -58 -43 -112 0 -42
5 -56 30 -84 96 -110 278 -17 240 122 -19 70 -80 114 -145 103z m66 -62 c89
-64 5 -202 -95 -155 -62 30 -72 102 -19 151 32 30 75 31 114 4z"/>
<path d="M9600 2613 c0 -136 1 -143 20 -143 18 0 20 7 20 85 0 47 4 85 9 85 4
0 19 -13 32 -29 53 -63 128 -141 136 -141 4 0 8 61 8 135 0 133 0 135 -22 135
-22 0 -23 -4 -23 -80 0 -44 -3 -80 -7 -80 -3 0 -43 39 -89 88 l-83 87 -1 -142z"/>
<path d="M10363 2739 c-26 -9 -43 -38 -43 -72 0 -26 32 -58 89 -89 24 -13 32
-24 29 -40 -2 -19 -9 -23 -38 -22 -19 1 -44 3 -55 5 -14 3 -20 -1 -20 -16 0
-14 11 -22 40 -30 56 -16 101 -3 121 36 23 46 5 80 -57 110 -60 28 -76 50 -52
74 10 11 24 14 37 10 58 -18 66 -18 66 4 0 20 -10 25 -70 35 -14 2 -35 0 -47
-5z"/>
<path d="M1630 2605 c0 -128 1 -135 20 -135 17 0 20 7 20 50 l0 50 35 0 c42 0
90 22 99 45 13 35 6 76 -19 100 -21 22 -33 25 -90 25 l-65 0 0 -135z"/>
<path d="M2390 2605 l0 -135 25 0 c24 0 25 3 25 55 0 51 2 55 23 55 18 0 29
-12 50 -55 22 -45 31 -55 52 -55 l25 0 -26 53 -26 54 26 26 c32 32 34 74 5
111 -19 24 -26 26 -100 26 l-79 0 0 -135z"/>
<path d="M2950 2647 c0 -115 18 -157 74 -171 22 -6 50 -6 74 0 55 13 72 54 72
172 0 91 0 92 -25 92 -24 0 -24 -1 -27 -102 -3 -100 -4 -103 -30 -118 -25 -13
-31 -13 -55 0 -27 15 -28 18 -31 118 -3 101 -3 102 -27 102 -25 0 -25 -1 -25
-93z"/>
<path d="M5113 2608 l2 -133 78 -3 c72 -3 77 -1 77 18 0 18 -6 20 -55 20 l-55
0 0 115 0 115 -24 0 -24 0 1 -132z"/>
<path d="M6282 2608 l3 -133 67 -3 c61 -3 71 0 93 22 31 31 32 65 4 95 -19 20
-20 24 -5 40 22 24 20 67 -4 91 -16 16 -33 20 -90 20 l-71 0 3 -132z"/>
<path d="M6920 2688 c-13 -29 -39 -86 -57 -126 -39 -86 -40 -92 -13 -92 13 0
24 10 30 25 9 23 14 25 73 25 58 0 65 -2 75 -25 7 -15 20 -25 32 -25 11 0 20
2 20 4 0 20 -118 266 -128 266 -5 0 -19 -24 -32 -52z"/>
<path d="M7456 2723 c-3 -10 -13 -58 -21 -108 -8 -49 -18 -102 -21 -117 -5
-25 -3 -28 19 -28 22 0 25 5 32 58 12 101 17 103 54 18 19 -42 40 -76 47 -76
8 0 14 4 14 10 0 5 14 40 31 77 26 57 33 65 40 48 4 -11 8 -36 8 -55 2 -60 11
-81 35 -78 11 2 20 8 19 13 -1 6 -9 55 -17 110 -29 178 -29 178 -85 57 -21
-46 -41 -86 -45 -89 -3 -3 -25 35 -47 85 -23 51 -46 92 -50 92 -4 0 -10 -8
-13 -17z"/>
<path d="M8770 2605 c0 -127 1 -135 20 -135 16 0 19 8 22 58 l3 57 68 3 67 3
0 -61 c0 -58 1 -61 23 -58 21 3 22 7 25 136 l3 132 -26 0 c-24 0 -25 -3 -25
-55 l0 -55 -70 0 -70 0 0 55 c0 48 -2 55 -20 55 -19 0 -20 -7 -20 -135z"/>
<path d="M10000 2605 l0 -136 88 3 c69 2 87 6 87 18 0 11 -15 16 -62 18 l-63
3 0 39 0 40 56 0 c47 0 55 3 52 18 -2 13 -15 18 -56 20 -52 3 -52 3 -52 37 l0
34 63 3 c47 2 62 7 62 18 0 12 -18 16 -87 18 l-88 3 0 -136z"/>
<path d="M10630 2720 c0 -16 6 -20 35 -20 l35 0 0 -115 c0 -108 1 -115 20
-115 19 0 20 7 20 114 l0 115 38 3 c25 2 37 8 37 18 0 12 -18 16 -92 18 -88 3
-93 2 -93 -18z"/>
<path d="M10980 2614 c-33 -70 -60 -130 -60 -135 0 -20 41 -8 52 16 10 23 17
25 73 25 56 0 63 -2 73 -25 11 -24 52 -36 52 -16 0 17 -114 261 -122 261 -5 0
-35 -57 -68 -126z"/>
</g>
</svg>
