<?xml version="1.0" standalone="no"?>
<!DOCTYPE svg PUBLIC "-//W3C//DTD SVG 20010904//EN"
 "http://www.w3.org/TR/2001/REC-SVG-20010904/DTD/svg10.dtd">
<svg version="1.0" xmlns="http://www.w3.org/2000/svg"
 width="960.000000pt" height="960.000000pt" viewBox="0 0 960.000000 960.000000"
 preserveAspectRatio="xMidYMid meet">
<metadata>
Created by potrace 1.16, written by Peter Selinger 2001-2019
</metadata>
<g transform="translate(0.000000,960.000000) scale(0.100000,-0.100000)"
fill="#000000" stroke="none">
<path d="M6615 4710 l-7 -50 -62 0 c-55 0 -64 3 -74 23 -8 17 -11 -19 -11
-150 l-1 -173 85 0 85 0 0 200 c0 110 -2 200 -4 200 -2 0 -7 -22 -11 -50z"/>
<path d="M8440 4726 c0 -60 -6 -66 -70 -66 -55 0 -59 2 -68 28 -9 22 -11 14
-11 -50 -1 -43 -5 -78 -10 -78 -5 0 -49 23 -97 52 l-87 51 -118 -2 c-101 -2
-123 1 -160 18 -24 12 -45 21 -48 21 -10 0 39 -31 294 -185 l256 -155 64 0 65
0 0 200 c0 110 -2 200 -5 200 -3 0 -5 -15 -5 -34z"/>
<path d="M881 4556 l-1 -198 673 5 c684 5 766 10 927 48 176 41 331 149 380
264 24 57 22 68 -5 20 l-18 -35 -85 0 -84 0 16 25 c24 36 19 42 -6 9 -78 -100
-174 -140 -413 -174 -48 -7 -308 -14 -646 -17 l-566 -5 -6 62 c-4 35 -7 84 -8
109 -1 43 -1 44 -11 19 -9 -26 -13 -28 -68 -28 l-58 0 -10 48 c-8 37 -10 7
-11 -152z"/>
<path d="M3371 4558 l-1 -198 85 0 85 0 -1 168 c-1 92 -5 178 -9 192 -7 21 -8
19 -9 -17 l-1 -43 -65 0 c-70 0 -67 -3 -78 70 -3 14 -5 -64 -6 -172z"/>
<path d="M1214 3986 c-43 -19 -64 -53 -64 -104 0 -37 6 -50 34 -78 28 -28 42
-34 76 -34 34 0 48 6 76 34 28 28 34 41 34 78 0 52 -21 85 -66 104 -41 17 -50
17 -90 0z m90 -47 c19 -15 26 -30 26 -54 0 -36 -36 -75 -70 -75 -10 0 -29 9
-44 21 -34 27 -35 71 -1 104 30 30 54 31 89 4z"/>
<path d="M2255 3989 c-3 -8 -4 -60 -3 -115 3 -85 5 -99 21 -102 15 -3 17 5 17
62 0 36 4 66 9 66 5 0 34 -29 66 -65 31 -36 61 -65 66 -65 5 0 9 50 9 110 0
103 -1 110 -20 110 -18 0 -20 -7 -20 -60 0 -33 -3 -60 -7 -60 -5 0 -36 30 -70
67 -46 51 -63 64 -68 52z"/>
<path d="M3074 3985 c-35 -18 -64 -62 -64 -100 0 -87 108 -148 171 -96 32 26
15 48 -24 30 -52 -23 -109 24 -98 81 4 24 43 60 63 60 11 0 29 -5 40 -11 28
-15 49 5 27 26 -23 23 -79 28 -115 10z"/>
<path d="M3373 3985 c-43 -18 -68 -59 -67 -109 1 -32 8 -46 38 -73 40 -37 79
-42 126 -18 80 42 77 166 -5 201 -42 17 -51 17 -92 -1z m92 -50 c14 -13 25
-36 25 -50 0 -30 -41 -75 -68 -75 -11 0 -31 9 -46 21 -36 28 -36 80 0 108 35
27 59 26 89 -4z"/>
<path d="M3944 3986 c-43 -19 -64 -53 -64 -104 0 -37 6 -50 35 -79 33 -33 39
-35 82 -30 64 7 103 49 103 110 0 51 -21 84 -66 103 -41 17 -50 17 -90 0z m91
-51 c34 -33 33 -77 -1 -104 -15 -12 -34 -21 -44 -21 -10 0 -29 9 -44 21 -34
27 -35 71 -1 104 31 32 59 32 90 0z"/>
<path d="M4245 3978 c-14 -62 -32 -194 -28 -200 2 -5 10 -8 17 -8 15 0 26 30
26 72 0 47 18 40 44 -17 14 -30 28 -55 31 -55 3 0 17 25 31 55 26 57 44 64 44
17 0 -42 11 -72 26 -72 7 0 15 3 18 8 5 8 -30 211 -38 220 -3 3 -22 -30 -43
-73 l-36 -78 -39 77 c-21 42 -40 76 -43 76 -3 0 -7 -10 -10 -22z"/>
<path d="M5060 3895 c-27 -59 -50 -112 -50 -116 0 -18 39 -8 45 11 3 11 11 20
16 21 61 5 83 1 99 -21 11 -14 23 -21 33 -17 14 5 9 22 -32 112 -27 58 -51
108 -54 112 -4 3 -29 -43 -57 -102z"/>
<path d="M5495 3903 c-10 -54 -20 -104 -22 -110 -7 -17 27 -29 37 -13 4 7 11
36 15 64 l7 51 29 -62 c16 -35 32 -63 35 -63 3 0 16 25 30 55 27 58 44 70 44
31 0 -52 12 -86 31 -86 11 0 19 3 19 8 -1 23 -39 214 -44 219 -3 4 -21 -26
-39 -65 -17 -40 -36 -72 -40 -72 -5 0 -23 32 -40 70 -17 39 -34 70 -38 70 -4
0 -15 -44 -24 -97z"/>
<path d="M5870 3896 c-27 -59 -50 -111 -50 -116 0 -19 30 -10 45 13 21 32 90
30 115 -3 11 -15 23 -21 33 -17 14 5 8 23 -34 114 -28 59 -53 110 -55 112 -2
2 -26 -44 -54 -103z"/>
<path d="M6153 3985 c-45 -32 -34 -84 27 -115 49 -25 56 -60 12 -60 -15 0 -33
5 -40 12 -9 9 -13 7 -18 -7 -9 -24 20 -45 61 -45 33 0 75 34 75 61 0 25 -30
59 -66 74 -23 10 -34 20 -34 35 0 19 5 21 41 18 52 -4 62 15 18 31 -42 14 -50
14 -76 -4z"/>
<path d="M6920 3982 c-49 -24 -76 -80 -60 -127 6 -19 25 -46 43 -61 26 -22 38
-25 75 -21 56 6 92 40 99 94 7 53 -18 100 -62 119 -44 18 -53 18 -95 -4z m103
-54 c24 -28 21 -65 -8 -93 -30 -30 -54 -31 -89 -4 -36 29 -36 80 1 109 32 25
69 20 96 -12z"/>
<path d="M7205 3989 c-3 -8 -4 -60 -3 -115 3 -85 5 -99 21 -102 15 -3 17 5 17
62 0 36 4 66 9 66 5 0 36 -29 69 -65 33 -36 62 -65 66 -65 3 0 6 50 6 110 0
103 -1 110 -20 110 -18 0 -20 -7 -20 -60 0 -33 -3 -60 -6 -60 -3 0 -34 30 -69
68 -48 51 -65 63 -70 51z"/>
<path d="M7810 3987 c-17 -9 -26 -22 -28 -44 -3 -35 13 -56 66 -85 22 -11 30
-22 26 -32 -7 -18 -37 -21 -65 -6 -27 15 -40 -17 -14 -36 47 -34 125 -3 125
50 0 25 -44 69 -81 81 -12 4 -19 13 -17 23 3 13 13 16 46 14 32 -2 42 1 42 13
0 15 -37 35 -63 35 -7 0 -23 -6 -37 -13z"/>
<path d="M8341 3982 c-14 -26 -91 -202 -91 -207 0 -15 40 -2 45 15 7 21 7 22
60 22 52 0 52 0 58 -22 3 -12 14 -20 27 -20 17 0 20 4 15 20 -10 32 -95 210
-100 210 -2 0 -9 -8 -14 -18z"/>
<path d="M892 3883 c3 -93 5 -108 21 -111 14 -3 17 4 17 36 0 38 2 40 36 45
49 8 74 33 74 72 0 47 -26 65 -94 65 l-57 0 3 -107z"/>
<path d="M1500 3879 c0 -100 2 -110 18 -107 12 2 18 15 20 46 4 56 27 54 60
-6 15 -27 30 -42 43 -42 24 0 24 2 -1 50 l-20 40 20 20 c11 11 20 33 20 48 0
45 -27 62 -98 62 l-62 0 0 -111z"/>
<path d="M1940 3909 c0 -76 2 -82 29 -110 20 -20 39 -29 61 -29 22 0 41 9 61
29 27 28 29 34 29 110 0 74 -2 81 -20 81 -18 0 -20 -7 -20 -68 0 -73 -17 -112
-50 -112 -33 0 -50 39 -50 112 0 61 -2 68 -20 68 -18 0 -20 -7 -20 -81z"/>
<path d="M2597 3889 c-26 -55 -47 -105 -47 -110 0 -17 29 -9 44 12 22 32 92
31 116 -1 11 -14 23 -21 33 -17 14 5 9 22 -32 108 -26 57 -52 104 -58 106 -5
2 -31 -42 -56 -98z"/>
<path d="M4582 3883 l3 -108 56 0 c32 0 63 6 73 14 20 17 21 64 2 80 -12 10
-12 16 2 40 15 26 15 30 -1 55 -16 23 -24 26 -78 26 l-60 0 3 -107z"/>
<path d="M6550 3879 c0 -100 2 -110 18 -107 13 2 18 15 20 51 l3 47 50 0 49 0
0 -50 c0 -43 3 -50 20 -50 19 0 20 7 20 110 0 103 -1 110 -20 110 -17 0 -20
-7 -20 -40 l0 -40 -50 0 -50 0 0 40 c0 33 -3 40 -20 40 -19 0 -20 -7 -20 -111z"/>
<path d="M7530 3880 l0 -111 67 3 c55 2 68 6 71 21 3 14 -4 17 -47 17 -50 0
-51 1 -51 30 0 28 2 30 40 30 33 0 40 3 40 20 0 17 -7 20 -40 20 -36 0 -40 3
-40 25 0 23 3 25 50 25 38 0 50 4 50 15 0 12 -14 15 -70 15 l-70 0 0 -110z"/>
</g>
</svg>
